<svg width="17" height="18" viewBox="0 0 17 18" fill="none" xmlns="http://www.w3.org/2000/svg">
<path fill-rule="evenodd" clip-rule="evenodd" d="M8.78161 1.17006C9.53064 0.421034 10.5465 0.000236511 11.6058 0.000236511C12.6651 0.000236511 13.681 0.421034 14.43 1.17006C15.179 1.91908 15.5998 2.93498 15.5998 3.99426C15.5998 5.05354 15.179 6.06943 14.43 6.81846L7.52161 13.7269C7.30832 13.9402 7.05509 14.1095 6.77638 14.225C6.49767 14.3405 6.19894 14.4 5.89724 14.4C5.28793 14.4002 4.70354 14.1582 4.27261 13.7275C3.84169 13.2967 3.59954 12.7124 3.59942 12.1031C3.59931 11.4938 3.84125 10.9094 4.27201 10.4785L10.974 3.77526L11.8236 4.62486L5.12041 11.3269C5.01854 11.4287 4.93772 11.5497 4.88258 11.6828C4.82745 11.8159 4.79907 11.9586 4.79907 12.1027C4.79907 12.2467 4.82745 12.3894 4.88258 12.5225C4.93772 12.6556 5.01854 12.7766 5.12041 12.8785C5.22229 12.9803 5.34324 13.0612 5.47635 13.1163C5.60947 13.1714 5.75213 13.1998 5.89621 13.1998C6.04029 13.1998 6.18296 13.1714 6.31607 13.1163C6.44919 13.0612 6.57013 12.9803 6.67201 12.8785L13.5804 5.97006C13.8399 5.71059 14.0457 5.40256 14.1861 5.06355C14.3265 4.72455 14.3988 4.3612 14.3988 3.99426C14.3988 3.62732 14.3265 3.26397 14.1861 2.92496C14.0457 2.58596 13.8399 2.27792 13.5804 2.01846C13.3209 1.75899 13.0129 1.55317 12.6739 1.41275C12.3349 1.27233 11.9716 1.20006 11.6046 1.20006C11.2377 1.20006 10.8743 1.27233 10.5353 1.41275C10.1963 1.55317 9.88828 1.75899 9.62881 2.01846L2.51521 9.13326C1.69 9.97905 1.23133 11.116 1.23861 12.2976C1.24589 13.4792 1.71852 14.6104 2.55408 15.446C3.38965 16.2816 4.52083 16.7542 5.70247 16.7615C6.88411 16.7687 8.02102 16.3101 8.86681 15.4849L15.7752 8.57526L16.6248 9.42486L9.71521 16.3333C8.64141 17.3684 7.20416 17.9408 5.71268 17.927C4.22121 17.9133 2.79472 17.3147 1.74013 16.26C0.685531 15.2052 0.0871139 13.7786 0.0736277 12.2872C0.0601416 10.7957 0.632664 9.35851 1.66801 8.28486L8.78161 1.16886V1.17006Z" fill="#637085"/>
</svg>
